<?xml version="1.0" encoding="utf-8"?>
<!-- Generator: Adobe Illustrator 13.0.1, SVG Export Plug-In . SVG Version: 6.00 Build 14948)  -->
<!DOCTYPE svg PUBLIC "-//W3C//DTD SVG 1.1//EN" "http://www.w3.org/Graphics/SVG/1.1/DTD/svg11.dtd">
<svg version="1.1" id="Capa_1" xmlns="http://www.w3.org/2000/svg" xmlns:xlink="http://www.w3.org/1999/xlink" x="0px" y="0px"
	 width="1024px" height="1024px" viewBox="0 896 1024 1024" enable-background="new 0 896 1024 1024" xml:space="preserve">
<title>&lt;B&gt; — A1 (DM Sans 900 outlined)</title>
<desc>Monograma &lt;B&gt; de Enrique Becerra. A1. Brackets vectorizados de DM Sans 900.</desc>
<g>
	<g>
		<path fill="#047857" d="M113.523,1316.594L7.873,1427.7l105.65,110.608h93.745L101.123,1427.7l106.146-111.106H113.523z
			 M563.276,1324.015c41.809-3.248,69.216-25.86,87.048-50.32c19.763-27.098,29.046-66.694,19.597-110.7
			c-16.118-74.101-75.402-134.208-153.485-139.062c-36.031-2.238-74,0-110.702,0c-36.622,0-76.051-3.979-111.613,0
			c-33.452,3.743-52.868,30.899-52.606,67.701c-0.09,65.436,13.263,170.091,19.852,232.381c0,0,177.285,0,208.021,0
			C500.121,1324.015,535.702,1326.157,563.276,1324.015z M632.322,1404.508c-38.652-15.044-102.133-12.601-154.751-12.601h-82.96
			c-26.421,0-60.678-2.52-83.89,1.05c-16.024,2.465-30.392,12.289-35.727,27.303c-7.818,22.01,1.673,62.459,4.761,88.21
			c2.001,16.196,6.549,65.228,9.322,91.357c4.217,38.202,7.625,87.99,10.199,132.313c1.003,16.758-0.656,32.258,3.429,43.054
			c13.859,37.045,54.963,32.552,104.29,32.552h82.958c49.768,0,118.281,4.754,158.543-7.352
			c78.372-23.53,133.995-95.349,130.874-190.067C775.903,1506.712,698.697,1430.448,632.322,1404.508z M912.324,1316.594h-93.745
			L924.723,1427.7l-106.145,110.608h93.745l105.649-110.608L912.324,1316.594z"/>
	</g>
</g>
</svg>
