<?xml version="1.0" encoding="utf-8"?>
<!-- Generator: Adobe Illustrator 13.0.1, SVG Export Plug-In . SVG Version: 6.00 Build 14948)  -->
<!DOCTYPE svg PUBLIC "-//W3C//DTD SVG 1.1//EN" "http://www.w3.org/Graphics/SVG/1.1/DTD/svg11.dtd">
<svg version="1.1" id="Capa_1" xmlns="http://www.w3.org/2000/svg" xmlns:xlink="http://www.w3.org/1999/xlink" x="0px" y="0px"
	 width="1024px" height="768px" viewBox="0 0 1024 768" enable-background="new 0 0 1024 768" xml:space="preserve">
<g>
	<g>
		<path d="M791.874,294.249c40.825-3.171,67.589-25.252,85-49.136c19.299-26.46,28.363-65.125,19.137-108.096
			C880.272,64.659,822.382,5.966,746.137,1.227c-35.185-2.185-72.26,0-108.099,0c-35.761,0-74.262-3.885-108.987,0
			c-32.665,3.655-51.625,30.172-51.369,66.108c-0.089,63.897,12.952,166.09,19.384,226.914c0,0,173.115,0,203.127,0
			C730.205,294.249,764.949,296.341,791.874,294.249z M282.191,648.647c-68.834,16.216-117.715,24.524-135.641-13.292
			c-6.553-16.024-5.559-34.737-5.518-34.737c0,0-107.316,0.183-108.768,0.063c-2.181,36.196-7.278,76.347,30.681,123.011
			c77.005,94.663,285.46,5.886,388.53-22.995c1.803-17.102-9.025-81.229-13.832-105.208
			C398.435,611.371,350.756,631.319,282.191,648.647z M108.188,542.575c28.87,0,47.039,0,47.04-0.003h178.419
			c23.59,0,41.926,0.23,62.413-5.759c16.459-4.821,47.748-22.121,53.078-54.396c2.367-14.309,0.417-31.254-0.907-43.621
			c-2.743-25.891-5.746-33.943-16.597-60.538c-16.412-40.292-42.132-61.433-77.615-79.063
			c-31.971-15.917-70.542-13.574-114.454-13.574c-46.813,0.001-61.06-0.069-100.924,1.723
			c-65.219,2.928-120.578,38.297-121.747,102.224c-0.688,34.435,3.897,66.825,9.531,93.076
			C33.597,515.582,50.366,542.575,108.188,542.575z M1002.887,573.827C999.5,472.648,924.11,398.178,859.296,372.849
			c-37.743-14.691-99.73-12.305-151.111-12.305h-81.007c-25.8,0-59.251-2.46-81.917,1.025
			c-15.647,2.408-29.677,11.999-34.886,26.661c-7.635,21.492,1.634,60.99,4.648,86.134c1.955,15.817,6.396,63.695,9.104,89.209
			c4.118,37.304,7.445,85.921,9.958,129.201c0.979,16.362-0.641,31.498,3.348,42.041c13.534,36.173,53.67,31.787,101.837,31.787
			h81.007c48.596,0,115.498,4.641,154.813-7.178C951.619,736.445,1005.933,666.316,1002.887,573.827z"/>
	</g>
</g>
</svg>
