<?xml version="1.0" encoding="utf-8"?>
<!-- Generator: Adobe Illustrator 13.0.1, SVG Export Plug-In . SVG Version: 6.00 Build 14948)  -->
<!DOCTYPE svg PUBLIC "-//W3C//DTD SVG 1.1//EN" "http://www.w3.org/Graphics/SVG/1.1/DTD/svg11.dtd">
<svg version="1.1" id="Capa_1" xmlns="http://www.w3.org/2000/svg" xmlns:xlink="http://www.w3.org/1999/xlink" x="0px" y="0px"
	 width="849.707px" height="850.69px" viewBox="0 0 849.707 850.69" enable-background="new 0 0 849.707 850.69"
	 xml:space="preserve">
<g>
	<path fill-rule="evenodd" clip-rule="evenodd" fill="#15233D" d="M127.953,19.508c0.188-0.057,2.851-0.919,7.662-2.103
		c4.814-1.185,14.609-2.794,15.584-2.979c4.872-0.923,9.964-1.626,15.559-1.824c172.237,0,344.478,0,516.716,0
		c13.535,0.626,24.495,3.835,35.927,6.57c1.143,0.274,2.291,0.542,3.448,0.804c10.442,3.08,19.711,7.726,29.688,12.715
		c1.03,0.624,3.502,1.772,4.51,2.424c6.063,3.912,10.499,6.824,16.795,11.17c12.82,10.1,26.854,26.362,32.439,33.685
		c5.582,7.322,6.38,8.81,10.096,15.383c0.533,0.938,4.937,7.918,6.064,10.888c3.963,9.502,5.852,14.383,8.863,23.475
		c0.296,1.14,0.592,2.283,0.883,3.432c3.188,12.623,5.712,25.911,6.532,40.905c0,175.776,0,351.558,0,527.33
		c-2.659,35.574-15.859,60.586-31.861,82.781c-0.663,0.928-1.337,1.848-2.008,2.76c-6.68,7.381-13.632,15.514-21.405,20.855
		c-0.918,0.688-1.841,1.367-2.771,2.045c-21.378,15.559-45.737,28.127-79.822,30.943c-183.824,0-367.649,0-551.473,0
		C68.708,828.723,22.542,782.086,11.512,700.223c0-175.775,0-351.558,0-527.331c0.573-12.118,1.417-22.666,3.861-32.909
		c0.272-1.138,0.546-2.273,0.821-3.409c2.02-7.931,4.586-15.95,9.365-24.646c0.442-0.952,0.896-1.898,1.355-2.834
		c4.605-9.365,10.015-17.923,15.447-26.457c0.652-1.025,1.306-2.048,1.966-3.074c5.415-6.562,11.209-13.531,17.136-19.934
		c0.795-0.603,1.576-1.222,2.346-1.854c4.625-3.784,8.848-7.973,13.74-11.489c1.54-1.165,3.16-2.251,4.78-3.337
		c0.81-0.544,1.62-1.086,2.422-1.638c4.714-3.984,9.938-6.832,15.311-9.465c0.896-0.439,1.795-0.873,2.695-1.304
		c3.615-2,7.161-3.872,10.829-5.568c0.916-0.423,1.842-0.837,2.778-1.238c3.361-1.205,4.793-1.677,7.073-2.53
		C125.719,20.352,127.156,19.828,127.953,19.508z"/>
</g>
<path fill-rule="evenodd" clip-rule="evenodd" fill="#CF871B" d="M307.012,173.298c2.088-0.497,6.215-0.347,8.602-0.099
	c15.961,3.082,27.516,10.954,28.54,25.9c0.869,12.698-12.577,21.57-11.933,32.214c1.625,26.94,62.172,12.253,83.529,10.738
	c2.521,5.114,3.531,11.74,4.575,18.334c0.172,1.099,0.347,2.196,0.529,3.288c2.056,9.399,2.056,18.944,3.818,28.465
	c0.154,0.995,0.305,2.005,0.446,3.017c0.554,4.046,0.932,8.103,0.49,12.041c-0.004,1.322-0.051,2.615-0.162,3.858
	c-0.447,4.971-1.939,9.147-6.116,10.937c-1.791,0.895-3.43,0.895-4.996,0.384c-0.784-0.254-1.548-0.637-2.294-1.097
	c-7.029-5.253-14.188-10.026-22.747-8.928c-0.914,0.023-1.813,0.055-2.708,0.103c-7.826-1.201-13.792,4.765-20.588,7.993
	c-0.579,0.406-1.147,0.825-1.697,1.256c-29.207,22.875-12.732,81.081,28.778,76.647c1.047-0.112,2.058-0.304,3.042-0.559
	c0.986-0.256,1.944-0.574,2.885-0.937c7.199-2.084,13.166-11.629,21.519-6.856c7.31,4.176,5.481,12.919,4.911,21.567
	c-0.082,1.235-0.133,2.471-0.117,3.698c-0.002,1.018-0.042,2.04-0.109,3.063c-0.066,1.024-0.161,2.051-0.275,3.08
	c-0.405,2.309-0.729,4.585-1.016,6.846c-0.096,0.753-0.187,1.506-0.275,2.256c-1.925,9.601-3.118,19.146-4.569,28.21
	c-0.215,0.908-0.453,1.801-0.725,2.669c-0.149,0.825-0.298,1.647-0.453,2.471c-0.305,1.639-0.62,3.271-0.951,4.887
	c-23.203-1.076-81.371-15.699-84.723,9.544c-1.51,11.376,12.038,23.004,11.933,32.215c-0.413,35.952-62.405,37.34-64.438,1.193
	c-0.787-13.991,13.462-15.443,11.933-32.215c-2.444-26.797-59.006-11.7-84.723-10.737c-4.036-19.918-10.228-42.401-9.546-63.236
	c0.338-10.325,3.574-24.456,11.933-26.249c12.001-2.574,19.044,9.452,26.252,10.738c43.787,7.807,47.345-63.332,11.933-69.201
	c-16.73-2.772-23.705,12.651-36.991,10.738c-15.841-2.281-12.449-27.133-11.933-45.338c0.447-5.071,1.268-11.186,2.386-17.897
	c1.268-8.128,3.341-18.136,5.966-26.249c22.413,0.905,80.661,15.749,84.723-8.352c1.845-10.948-12.123-20.959-11.933-33.407
	C279.946,185.149,291.277,176.735,307.012,173.298z"/>
<path fill-rule="evenodd" clip-rule="evenodd" fill="#F08F4A" d="M456.542,236.645c2.661-0.475,6.194-0.689,8.359-1.056
	c1.405-0.239,5.687-0.763,6.531-0.794c1.347-0.142,2.712-0.285,4.092-0.42c17.928-1.767,37.888-2.5,40.957,10.148
	c4.202,17.325-13.13,19.64-10.739,38.179c4.931,38.266,72.332,33.009,68.017-8.352c-1.106-10.593-12.856-15.963-10.741-28.635
	c2.349-14.053,25.887-13.172,41.765-11.931c16.849,1.317,30.813,5.831,46.539,8.352c0,2.386,0,4.772,0,7.159
	c0,0.398,0,0.795,0,1.193c-3.633,23.48-17.514,69.313,3.979,82.922c3.38,1.591,8.551,2.884,12.529,0.498
	c3.977-2.386,10.89-8.413,18.526-10.322c0.633-0.149,1.56-0.317,1.956-0.317c19.925,0.362,27.787,10.995,30.829,28.238
	c0.597,3.977-0.399,8.948-0.996,13.521c-2.883,13.622-12.9,22.512-26.254,22.669c-10.737,0.127-21.357-12.801-31.023-11.931
	c-12.973,1.169-16.301,19.894-16.706,32.214c-0.729,22.248,6.05,41.062,7.16,59.656c-14.224,3.326-82.239,22.204-88.304-1.194
	c-4.444-17.149,15.066-22.743,10.442-39.148c-0.224-1.099-0.541-2.125-0.82-3.057c-4.018-11.892-12.117-19.628-26.289-21.364
	c-4.885-0.504-9.77-0.522-13.165,0.335c-15.394,3.051-25.79,11.31-27.443,25.056c-1.757,14.597,13.288,23.966,10.739,36.987
	c-4.948,25.262-75.659,5.664-88.302,2.386c3.426-21.186,13.061-54.893,5.553-76.776c-0.375-1.094-0.795-2.158-1.256-3.192
	c-1.912-5.937-6.685-9.516-12.926-11.485c-1.056-0.168-2.122-0.178-3.198-0.062c-9.692,1.053-20.323,12.325-33.519,10.382
	c-14.046-2.066-19.097-13.367-22.672-31.021c0-0.795,0-1.591,0-2.387c-0.103-18.22,17.433-31.612,34.139-28.019
	c1.284,0.275,2.564,0.653,3.831,1.136c6.181,3.021,12.147,7.793,20.359,8.194c1.101,0.068,2.147,0.019,3.132-0.139
	c23.641-3.798,12.294-70.491,6.556-92.132c2.99-1.187,6.666-1.686,10.292-2.235c0.907-0.137,1.812-0.278,2.698-0.433
	C443.957,238.785,456.542,236.645,456.542,236.645z"/>
<g>
	<path fill-rule="evenodd" clip-rule="evenodd" fill="#CF8732" d="M119.607,7.093c0.194-0.058,2.928-0.944,7.872-2.16
		c4.944-1.217,15.005-2.87,16.007-3.06c5.004-0.948,10.234-1.67,15.982-1.874c176.922,0,353.847,0,530.77,0
		c13.903,0.643,25.161,3.939,36.904,6.749c1.173,0.282,2.353,0.557,3.542,0.826c10.727,3.164,20.247,7.936,30.496,13.062
		c1.058,0.64,3.597,1.82,4.632,2.49c6.229,4.018,10.785,7.009,17.252,11.474c13.169,10.375,27.585,27.079,33.321,34.601
		c5.734,7.521,6.554,9.05,10.371,15.801c0.547,0.964,5.07,8.134,6.229,11.184c4.07,9.76,6.011,14.774,9.104,24.113
		c0.304,1.171,0.607,2.345,0.906,3.525c3.274,12.966,5.867,26.616,6.71,42.018c0,180.557,0,361.12,0,541.673
		c-2.731,36.541-16.291,62.231-32.728,85.031c-0.682,0.953-1.374,1.897-2.063,2.836c-6.861,7.582-14.003,15.935-21.988,21.421
		c-0.942,0.708-1.891,1.405-2.846,2.102c-21.959,15.98-46.981,28.893-81.993,31.785c-188.824,0-377.648,0-566.472,0
		C58.753,838.317,11.33,790.414,0,706.324c0-180.558,0-361.121,0-541.675c0.589-12.448,1.456-23.282,3.967-33.804
		c0.28-1.169,0.561-2.335,0.843-3.501c2.075-8.147,4.711-16.384,9.621-25.316c0.455-0.978,0.919-1.949,1.392-2.911
		c4.73-9.619,10.288-18.41,15.868-27.176c0.67-1.053,1.341-2.104,2.019-3.158c5.563-6.74,11.514-13.899,17.602-20.477
		c0.816-0.619,1.619-1.255,2.411-1.904c4.75-3.887,9.087-8.189,14.112-11.802c1.583-1.196,3.246-2.313,4.911-3.428
		c0.832-0.559,1.665-1.115,2.487-1.683c4.843-4.093,10.208-7.018,15.728-9.723c0.92-0.451,1.844-0.896,2.768-1.34
		c3.714-2.054,7.356-3.977,11.124-5.72c0.941-0.435,1.892-0.86,2.854-1.272c3.454-1.238,4.923-1.723,7.266-2.599
		C117.314,7.96,118.789,7.422,119.607,7.093z M426.044,19.09c-86.54,5.5-189.834-7.335-273.716,0
		c-23.843,2.084-44.327,12.879-61.883,22.669c-0.899,0.623-1.832,1.212-2.776,1.789C81.321,47.844,74.719,52.521,68.792,58
		c-0.741,0.685-1.472,1.382-2.191,2.092c-7.097,6.723-14.237,15.074-20.062,23.554c-0.443,0.748-0.879,1.503-1.316,2.258
		c-12.378,19.805-23.626,40.741-24.992,71.586c-3.933,179.848-1.689,543.637,0,555.99c1.464,10.707,3.581,17.397,5.917,24.251
		c3.053,8.999,5.717,15.834,11.442,27.06c0.643,1.187,5.104,9.648,5.893,10.725c10.825,14.745,10.509,21.34,46.857,40.531
		c1.146,0.605,15.761,8.851,25.441,11.192c12.343,2.986,22.778,4.254,38.473,4.254c1.114,0,2.219-0.07,3.294-0.057
		c1.075,0.018,2.118,0.065,3.111,0.164c0.396,0,0.793,0,1.19,0c5.553,0,11.107,0,16.661,0c3.569,0,7.141,0,10.71,0
		c166.263,0,332.53,0,498.792,0c1.362,0,2.724,0,4.087,0c10.039,0,20.75,0,29.793-2.148c0.727-0.105,1.45-0.216,2.166-0.333
		c25.051-4.118,42.649-15.706,59.005-28.54c5.65-4.671,10.81-9.842,15.47-15.51c15.274-18.89,28.326-40.009,30.943-71.589
		c1.982-183.733,1.982-375.832,0-559.569c-1.237-15.021-5.847-31.688-12.857-46.549c-7.012-14.861-9.756-19.072-15.704-27.423
		c-0.725-0.906-1.452-1.807-2.184-2.703c-3.959-4.836-8.08-9.511-12.466-13.92c-0.729-0.735-1.469-1.462-2.213-2.182
		c-9.319-7.444-17.65-15.796-28.362-21.761c-0.996-0.566-2-1.128-3.006-1.683c-11.345-6.245-23.448-11.728-37.787-14.968
		c-1.195-0.271-2.406-0.524-3.632-0.763c-10.317-1.676-21.028-4.062-32.096-2.869c-1.251,0-2.499,0-3.751,0
		c-21.24,0-42.484,0-63.725,0c-5.95,0-11.901,0-17.852,0c-26.579,0-53.158,0-79.734,0c-3.967,0-7.933,0-11.899,0
		c-18.248,0-36.496,0-54.746,0C440.324,19.09,433.184,19.09,426.044,19.09z"/>
</g>
<path fill-rule="evenodd" clip-rule="evenodd" fill="#CF871B" d="M228.958,127.566"/>
<g>
	<path fill="#FFFFFF" d="M211.284,636.596v40.794h-19.678V566.589c13.118-0.555,20.787-0.833,23.008-0.833
		c17.508,0,30.312,2.688,38.409,8.061c8.099,5.374,12.147,13.763,12.147,25.165c0,25.43-14.985,38.145-44.956,38.145
		C217.994,637.126,215.017,636.949,211.284,636.596z M211.284,583.617v35.496c3.33,0.354,5.953,0.529,7.871,0.529
		c8.98,0,15.54-1.5,19.678-4.503c4.137-3.001,6.206-7.883,6.206-14.645c0-11.504-9.259-17.256-27.776-17.256
		C215.193,583.239,213.201,583.365,211.284,583.617z"/>
	<path fill="#FFFFFF" d="M282.956,677.39V566.514h19.678V677.39H282.956z"/>
	<path fill="#FFFFFF" d="M345.395,583.996v25.959h36.631v16.727h-36.631v33.225h50.254v17.483h-69.932V566.514h70.765v17.482
		H345.395z"/>
	<path fill="#FFFFFF" d="M408.591,677.39v-6.357l46.242-87.036h-45.485v-17.482h72.278v6.357l-46.395,87.035h48.059v17.483H408.591z
		"/>
	<path fill="#FFFFFF" d="M565.408,677.39l-8.099-22.478h-37.993l-7.72,22.478h-21.872L533.923,565h8.627l44.578,112.39H565.408z
		 M538.237,598.906l-13.32,40.944h26.641L538.237,598.906z"/>
	<path fill="#FFFFFF" d="M593.562,671.26l7.266-17.635c7.77,5.449,15.413,8.174,22.932,8.174c11.554,0,17.332-4.036,17.332-12.109
		c0-3.784-1.362-7.391-4.087-10.822s-8.338-7.277-16.84-11.542c-8.502-4.263-14.229-7.77-17.18-10.521
		c-2.952-2.749-5.223-6.017-6.812-9.801c-1.59-3.784-2.385-7.972-2.385-12.563c0-8.577,3.142-15.691,9.423-21.343
		c6.282-5.65,14.343-8.477,24.181-8.477c12.815,0,22.226,2.396,28.23,7.189l-5.979,16.953c-6.914-4.943-14.204-7.416-21.873-7.416
		c-4.541,0-8.061,1.199-10.558,3.595c-2.498,2.397-3.747,5.513-3.747,9.347c0,6.357,7.039,12.968,21.116,19.829
		c7.417,3.633,12.765,6.976,16.045,10.028c3.279,3.053,5.776,6.61,7.493,10.671c1.714,4.063,2.572,8.591,2.572,13.585
		c0,8.982-3.545,16.374-10.633,22.176c-7.09,5.803-16.588,8.703-28.495,8.703C611.221,679.281,601.887,676.607,593.562,671.26z"/>
</g>
</svg>
