<svg xmlns="http://www.w3.org/2000/svg" viewBox="350 -20 780 780" width="780" height="780"><metadata><rdf:RDF xmlns:rdf="http://www.w3.org/1999/02/22-rdf-syntax-ns#" xmlns:dc="http://purl.org/dc/elements/1.1/"><rdf:Description><dc:creator>RealFaviconGenerator</dc:creator><dc:source>https://realfavicongenerator.net</dc:source></rdf:Description></rdf:RDF></metadata><path fill="#047857" d="M791.874,294.249c40.825-3.171,67.589-25.252,85-49.136c19.299-26.46,28.363-65.125,19.137-108.096C880.272,64.659,822.382,5.966,746.137,1.227c-35.185-2.185-72.26,0-108.099,0c-35.761,0-74.262-3.885-108.987,0c-32.665,3.655-51.625,30.172-51.369,66.108c-0.089,63.897,12.952,166.09,19.384,226.914c0,0,173.115,0,203.127,0C730.205,294.249,764.949,296.341,791.874,294.249z"></path><path fill="#047857" d="M1002.887,573.827C999.5,472.648,924.11,398.178,859.296,372.849c-37.743-14.691-99.73-12.305-151.111-12.305h-81.007c-25.8,0-59.251-2.46-81.917,1.025c-15.647,2.408-29.677,11.999-34.886,26.661c-7.635,21.492,1.634,60.99,4.648,86.134c1.955,15.817,6.396,63.695,9.104,89.209c4.118,37.304,7.445,85.921,9.958,129.201c0.979,16.362-0.641,31.498,3.348,42.041c13.534,36.173,53.67,31.787,101.837,31.787h81.007c48.596,0,115.498,4.641,154.813-7.178C951.619,736.445,1005.933,666.316,1002.887,573.827z"></path><style>@media (prefers-color-scheme: light) { :root { filter: none; } }
@media (prefers-color-scheme: dark) { :root { filter: none; } }
</style></svg>