<?xml version="1.0" encoding="utf-8"?>
<!-- Generator: Adobe Illustrator 13.0.1, SVG Export Plug-In . SVG Version: 6.00 Build 14948)  -->
<!DOCTYPE svg PUBLIC "-//W3C//DTD SVG 1.1//EN" "http://www.w3.org/Graphics/SVG/1.1/DTD/svg11.dtd">
<svg version="1.1" id="Capa_1" xmlns="http://www.w3.org/2000/svg" xmlns:xlink="http://www.w3.org/1999/xlink" x="0px" y="0px"
	 width="843.979px" height="590.426px" viewBox="0 0 843.979 590.426" enable-background="new 0 0 843.979 590.426"
	 xml:space="preserve">
<path fill-rule="evenodd" clip-rule="evenodd" fill="#CF871B" d="M177.341,0.532c3.376-0.803,10.048-0.562,13.908-0.161
	c25.806,4.983,44.488,17.711,46.144,41.876c1.405,20.531-20.334,34.875-19.294,52.085c2.627,43.558,100.521,19.811,135.053,17.361
	c4.076,8.269,5.708,18.982,7.397,29.644c0.278,1.777,0.562,3.552,0.855,5.316c3.323,15.196,3.323,30.629,6.173,46.023
	c0.249,1.608,0.493,3.241,0.721,4.877c0.895,6.542,1.506,13.101,0.792,19.468c-0.006,2.137-0.083,4.228-0.262,6.237
	c-0.723,8.038-3.136,14.79-9.889,17.683c-2.895,1.447-5.547,1.447-8.078,0.622c-1.267-0.412-2.503-1.029-3.708-1.773
	c-11.365-8.494-22.94-16.21-36.777-14.436c-1.478,0.037-2.933,0.088-4.38,0.167c-12.653-1.942-22.299,7.703-33.287,12.923
	c-0.936,0.656-1.854,1.333-2.744,2.031c-47.223,36.986-20.586,131.093,46.53,123.926c1.692-0.181,3.327-0.492,4.917-0.904
	c1.594-0.413,3.144-0.928,4.666-1.513c11.639-3.371,21.287-18.803,34.791-11.087c11.818,6.752,8.863,20.888,7.941,34.87
	c-0.133,1.997-0.215,3.996-0.19,5.979c-0.003,1.646-0.067,3.299-0.177,4.953c-0.107,1.654-0.26,3.315-0.445,4.979
	c-0.654,3.732-1.179,7.413-1.642,11.069c-0.155,1.217-0.302,2.434-0.445,3.647c-3.112,15.522-5.042,30.955-7.388,45.61
	c-0.348,1.469-0.732,2.911-1.173,4.315c-0.241,1.334-0.482,2.663-0.731,3.995c-0.493,2.648-1.002,5.287-1.538,7.9
	c-37.515-1.74-131.562-25.383-136.981,15.431c-2.441,18.394,19.463,37.193,19.294,52.086c-0.667,58.128-100.899,60.372-104.185,1.93
	c-1.272-22.621,21.767-24.969,19.293-52.086c-3.951-43.325-95.402-18.917-136.982-17.36C8.994,446.013-1.018,409.662,0.084,375.976
	c0.547-16.694,5.778-39.541,19.294-42.439c19.404-4.161,30.791,15.282,42.444,17.361c70.796,12.622,76.549-102.396,19.293-111.885
	c-27.05-4.483-38.326,20.455-59.808,17.362c-25.612-3.688-20.128-43.87-19.293-73.304c0.723-8.199,2.049-18.086,3.858-28.936
	c2.05-13.142,5.402-29.322,9.646-42.44c36.237,1.463,130.415,25.463,136.982-13.503c2.983-17.701-19.6-33.887-19.293-54.013
	C133.58,19.693,151.9,6.088,177.341,0.532z"/>
<path fill-rule="evenodd" clip-rule="evenodd" fill="#F08F4A" d="M419.105,102.953c4.303-0.768,10.016-1.114,13.516-1.708
	c2.272-0.386,9.194-1.233,10.56-1.284c2.179-0.23,4.385-0.46,6.616-0.68c28.986-2.857,61.258-4.042,66.22,16.408
	c6.795,28.011-21.228,31.754-17.362,61.729c7.972,61.87,116.948,53.371,109.971-13.502c-1.789-17.128-20.787-25.811-17.366-46.298
	c3.797-22.721,41.854-21.296,67.526-19.291c27.241,2.13,49.819,9.428,75.245,13.504c0,3.858,0,7.716,0,11.574
	c0,0.644,0,1.286,0,1.929c-5.874,37.963-28.316,112.068,6.433,134.07c5.465,2.572,13.825,4.663,20.258,0.805
	c6.429-3.858,17.606-13.602,29.953-16.688c1.023-0.242,2.522-0.513,3.163-0.513c32.215,0.584,44.927,17.776,49.846,45.655
	c0.965,6.429-0.646,14.468-1.61,21.861c-4.662,22.024-20.858,36.398-42.448,36.652c-17.36,0.206-34.532-20.698-50.16-19.291
	c-20.975,1.891-26.354,32.165-27.011,52.085c-1.179,35.972,9.781,66.39,11.577,96.454c-22.997,5.378-132.967,35.9-142.771-1.931
	c-7.187-27.729,24.359-36.772,16.883-63.297c-0.361-1.775-0.875-3.436-1.326-4.942c-6.495-19.228-19.591-31.735-42.505-34.542
	c-7.897-0.814-15.796-0.845-21.285,0.542c-24.889,4.934-41.698,18.285-44.371,40.511c-2.841,23.601,21.484,38.748,17.362,59.802
	c-8,40.844-122.327,9.158-142.768,3.857c5.539-34.253,21.117-88.753,8.978-124.134c-0.606-1.769-1.286-3.488-2.031-5.16
	c-3.091-9.6-10.807-15.387-20.898-18.57c-1.708-0.271-3.43-0.287-5.171-0.099c-15.671,1.702-32.858,19.927-54.194,16.786
	c-22.71-3.342-30.876-21.612-36.657-50.155c0-1.286,0-2.572,0-3.859c-0.166-29.458,28.186-51.111,55.197-45.301
	c2.075,0.445,4.146,1.056,6.194,1.836c9.994,4.885,19.64,12.6,32.917,13.249c1.78,0.11,3.472,0.031,5.065-0.224
	c38.222-6.142,19.877-113.972,10.599-148.962c4.834-1.918,10.778-2.726,16.64-3.614c1.467-0.222,2.928-0.449,4.362-0.701
	C398.756,106.412,419.105,102.953,419.105,102.953z"/>
</svg>
